HIERARCHY
ROOT Hips
{
	OFFSET 0.000000 0.000000 0.000000
	CHANNELS 6 Xposition Yposition Zposition Xrotation Yrotation Zrotation
	JOINT LeftUpLeg_virtual
	{
		OFFSET 0.000000 0.000000 0.000000
		CHANNELS 3 Xrotation Yrotation Zrotation
		JOINT LeftUpLeg
		{
			OFFSET 13.026900 -6.336304 -1.092800
			CHANNELS 3 Xrotation Yrotation Zrotation
			JOINT LeftLeg
			{
				OFFSET 0.524474 -46.096886 9.782700
				CHANNELS 3 Xrotation Yrotation Zrotation
				JOINT LeftFoot
				{
					OFFSET -0.524474 -53.427422 -12.948200
					CHANNELS 3 Xrotation Yrotation Zrotation
					JOINT LeftToeBase
					{
						OFFSET 0.192200 -14.009700 16.364100
						CHANNELS 3 Xrotation Yrotation Zrotation
						JOINT LeftToe_End
						{
							OFFSET -1.784700 -0.561700 9.474800
							CHANNELS 3 Xrotation Yrotation Zrotation
							End Site
							{
								OFFSET 0 0 0
							}
						}
					}
				}
			}
		}
	}
	JOINT RightUpLeg_virtual
	{
		OFFSET 0.000000 0.000000 0.000000
		CHANNELS 3 Xrotation Yrotation Zrotation
		JOINT RightUpLeg
		{
			OFFSET -12.883000 -6.336304 -1.092800
			CHANNELS 3 Xrotation Yrotation Zrotation
			JOINT RightLeg
			{
				OFFSET -0.524587 -46.096825 9.782800
				CHANNELS 3 Xrotation Yrotation Zrotation
				JOINT RightFoot
				{
					OFFSET 0.524587 -53.427383 -12.948300
					CHANNELS 3 Xrotation Yrotation Zrotation
					JOINT RightToeBase
					{
						OFFSET -0.192200 -14.009700 16.364100
						CHANNELS 3 Xrotation Yrotation Zrotation
						JOINT RightToe_End
						{
							OFFSET 1.784700 -0.561700 9.474800
							CHANNELS 3 Xrotation Yrotation Zrotation
							End Site
							{
								OFFSET 0 0 0
							}
						}
					}
				}
			}
		}
	}
	JOINT Spine_virtual
	{
		OFFSET 0.000000 0.000000 0.000000
		CHANNELS 3 Xrotation Yrotation Zrotation
		JOINT Spine
		{
			OFFSET 0.072000 7.257294 -0.789700
			CHANNELS 3 Xrotation Yrotation Zrotation
			JOINT Spine1
			{
				OFFSET 0.000000 12.508769 -0.658067
				CHANNELS 3 Xrotation Yrotation Zrotation
				JOINT Spine1_split
				{
					OFFSET 0.000000 12.508769 -0.658067
					CHANNELS 3 Xrotation Yrotation Zrotation
					JOINT Spine2
					{
						OFFSET 0.000000 12.508769 -0.658067
						CHANNELS 3 Xrotation Yrotation Zrotation
						JOINT Neck_virtual
						{
							OFFSET 0.000000 0.000000 0.000000
							CHANNELS 3 Xrotation Yrotation Zrotation
							JOINT Neck
							{
								OFFSET 0.000000 14.033295 7.520400
								CHANNELS 3 Xrotation Yrotation Zrotation
								JOINT Head
								{
									OFFSET 0.000000 8.198502 5.703100
									CHANNELS 3 Xrotation Yrotation Zrotation
									JOINT HeadTop_End
									{
										OFFSET 0.000000 17.760803 13.332701
										CHANNELS 3 Xrotation Yrotation Zrotation
										End Site
										{
											OFFSET 0 0 0
										}
									}
								}
							}
						}
						JOINT LeftShoulder_virtual
						{
							OFFSET 0.000000 0.000000 0.000000
							CHANNELS 3 Xrotation Yrotation Zrotation
							JOINT LeftShoulder
							{
								OFFSET 6.292450 5.785301 -0.669000
								CHANNELS 3 Xrotation Yrotation Zrotation
								JOINT LeftShoulder_split
								{
									OFFSET 6.292450 5.785301 -0.669000
									CHANNELS 3 Xrotation Yrotation Zrotation
									JOINT LeftArm
									{
										OFFSET 13.907140 -6.093903 1.965100
										CHANNELS 3 Xrotation Yrotation Zrotation
										JOINT LeftForeArm
										{
											OFFSET 34.140198 0.000000 0.000000
											CHANNELS 3 Xrotation Yrotation Zrotation
											JOINT LeftHand
											{
												OFFSET 40.960209 0.000000 0.000000
												CHANNELS 3 Xrotation Yrotation Zrotation
												End Site
												{
													OFFSET 0 0 0
												}
											}
										}
									}
								}
							}
						}
						JOINT RightShoulder_virtual
						{
							OFFSET 0.000000 0.000000 0.000000
							CHANNELS 3 Xrotation Yrotation Zrotation
							JOINT RightShoulder
							{
								OFFSET -6.292450 5.785301 -0.669000
								CHANNELS 3 Xrotation Yrotation Zrotation
								JOINT RightShoulder_split
								{
									OFFSET -6.292450 5.785301 -0.669000
									CHANNELS 3 Xrotation Yrotation Zrotation
									JOINT RightArm
									{
										OFFSET -13.907140 -6.093903 1.965100
										CHANNELS 3 Xrotation Yrotation Zrotation
										JOINT RightForeArm
										{
											OFFSET -34.140198 0.000000 0.000000
											CHANNELS 3 Xrotation Yrotation Zrotation
											JOINT RightHand
											{
												OFFSET -40.960209 0.000000 0.000000
												CHANNELS 3 Xrotation Yrotation Zrotation
												End Site
												{
													OFFSET 0 0 0
												}
											}
										}
									}
								}
							}
						}
					}
				}
			}
		}
	}
}
MOTION
Frames: 7
Frame Time: 0.03333333
-1.536655 152.823898 22.236694 0.000000 0.000000 0.000000 6.289032 -40.179401 2.845386 -85.045001 -19.086926 20.261900 81.066422 -2.448520 -0.395947 13.880458 3.057402 -2.930145 -11.950034 2.066039 -0.915129 0.000000 0.000000 0.000000 5.915179 -36.301663 2.206345 -114.081269 -49.597210 8.964332 115.106255 -5.544625 -27.656295 46.366435 8.200887 27.843831 8.104288 3.043099 -4.825454 0.000000 0.000000 0.000000 4.063961 -42.062863 0.182735 32.149195 -8.136393 -7.205050 12.471949 0.677965 -3.415314 0.120110 1.679251 0.975207 0.000000 0.000000 0.000000 12.367228 0.574812 -2.399390 -7.459990 19.032172 -15.197451 -29.676434 11.190764 3.774435 0.000000 0.000000 0.000000 13.769783 1.122866 -2.860413 13.309062 -19.761498 3.474700 2.651310 -4.492784 -3.487208 -58.789897 -11.108070 -6.018539 47.531485 -16.186976 29.190135 0.000000 0.000000 0.000000 14.930978 1.078028 -3.129051 18.862969 24.257244 -7.824216 0.320703 4.063262 3.745337 -33.953984 2.124791 8.908197 -44.294480 48.366431 33.782020 0.000000 0.000000 0.000000 
-1.472060 152.715622 22.203678 0.000000 0.000000 0.000000 6.307049 -40.521258 3.060276 -84.958674 -18.990366 20.382773 80.957310 -2.447173 -0.512495 13.779028 3.290393 -3.048489 -11.924874 2.048566 -0.922478 0.000000 0.000000 0.000000 5.928980 -36.597434 2.395895 -113.983235 -49.439259 8.755227 114.906704 -5.327555 -27.595160 46.147743 8.127771 27.468550 8.105747 3.043457 -4.860575 0.000000 0.000000 0.000000 3.973067 -42.191547 0.316600 32.121584 -8.156169 -7.262776 12.414925 0.699589 -3.404052 0.069593 1.693965 0.985583 0.000000 0.000000 0.000000 12.390338 0.579426 -2.406754 -7.446627 19.016485 -15.212259 -29.431275 11.280789 3.624728 0.000000 0.000000 0.000000 13.711362 1.147124 -2.842698 13.031139 -19.837354 2.771879 2.823234 -4.596730 -3.763082 -57.973348 -10.513653 -5.871217 47.391025 -16.080936 28.929546 0.000000 0.000000 0.000000 14.889476 1.064878 -3.137772 18.402481 24.671022 -6.854116 0.307654 4.156206 3.724732 -32.862383 1.993443 8.821363 -44.422983 48.119024 33.708042 0.000000 0.000000 0.000000 
-1.424483 152.613647 22.176620 0.000000 0.000000 0.000000 6.399198 -40.754400 3.296714 -84.840129 -18.925262 20.426806 80.789663 -2.479635 -0.614524 13.582390 3.575306 -3.171723 -11.900441 2.020166 -0.918467 0.000000 0.000000 0.000000 5.988333 -36.780569 2.587657 -113.884867 -49.258365 8.525949 114.693698 -5.105524 -27.523962 45.889729 8.096026 27.131376 8.059009 3.041742 -4.880148 0.000000 0.000000 0.000000 3.922327 -42.316536 0.481511 32.036319 -8.172826 -7.308667 12.350139 0.712767 -3.395724 0.041858 1.704016 0.997541 0.000000 0.000000 0.000000 12.393126 0.583957 -2.421014 -7.370835 18.989654 -15.241693 -29.119050 11.370281 3.514482 0.000000 0.000000 0.000000 13.656542 1.168102 -2.830522 12.801923 -19.846860 2.170963 2.907027 -4.719546 -4.048757 -57.043547 -9.673511 -5.567310 47.239460 -16.114583 28.734073 0.000000 0.000000 0.000000 14.844928 1.055329 -3.148948 17.987882 25.036415 -6.028370 0.286074 4.231124 3.786496 -31.911098 1.623065 8.614871 -44.512329 47.766204 33.570380 0.000000 0.000000 0.000000 
-1.394137 152.533707 22.127708 0.000000 0.000000 0.000000 6.548982 -40.843753 3.548066 -84.698239 -18.908378 20.372752 80.577449 -2.537965 -0.696150 13.329235 3.903045 -3.302573 -11.888089 1.984321 -0.902317 0.000000 0.000000 0.000000 6.079435 -36.851930 2.789857 -113.795125 -49.077003 8.248317 114.473055 -4.890033 -27.440545 45.579789 8.106930 26.828788 8.006794 3.039273 -4.890563 0.000000 0.000000 0.000000 3.905596 -42.430095 0.681844 31.909988 -8.195089 -7.347203 12.292713 0.717244 -3.392386 0.056737 1.733528 1.054985 0.000000 0.000000 0.000000 12.381594 0.590253 -2.442766 -7.271736 18.947013 -15.267028 -28.758720 11.434281 3.461412 0.000000 0.000000 0.000000 13.609962 1.184885 -2.825771 12.608989 -19.798586 1.624831 2.874510 -4.802693 -4.335225 -56.016120 -8.561131 -5.179048 47.151258 -16.333901 28.661926 0.000000 0.000000 0.000000 14.799905 1.051183 -3.159502 17.620807 25.348623 -5.315339 0.282442 4.278452 3.917823 -31.167106 1.215829 8.362667 -44.472864 47.277289 33.287043 0.000000 0.000000 0.000000 
-1.391337 152.482224 22.074928 0.000000 0.000000 0.000000 6.712482 -40.825154 3.807947 -84.517014 -18.926010 20.243291 80.328243 -2.607649 -0.766537 13.045025 4.271903 -3.423854 -11.909610 1.946189 -0.875507 0.000000 0.000000 0.000000 6.205271 -36.847802 3.016869 -113.729972 -48.904086 7.890191 114.277220 -4.692928 -27.328128 45.245222 8.157078 26.553361 7.945679 3.038352 -4.898433 0.000000 0.000000 0.000000 3.909502 -42.520492 0.899054 31.759259 -8.223436 -7.383861 12.242008 0.719931 -3.399919 0.100796 1.770823 1.076544 0.000000 0.000000 0.000000 12.352031 0.602596 -2.473991 -7.171898 18.895741 -15.285355 -28.374011 11.471258 3.479813 0.000000 0.000000 0.000000 13.564178 1.198355 -2.830078 12.425280 -19.702512 1.061851 2.729884 -4.794299 -4.534006 -54.958564 -7.143697 -4.729629 47.217395 -16.787582 28.766322 0.000000 0.000000 0.000000 14.748414 1.053220 -3.171108 17.295057 25.599001 -4.667425 0.272389 4.275129 4.097346 -30.596468 0.910881 8.104093 -44.305217 46.687642 32.877437 0.000000 0.000000 0.000000 
-1.405268 152.454636 22.029968 0.000000 0.000000 0.000000 6.880027 -40.751221 4.080907 -84.302197 -18.944604 20.065684 80.054632 -2.675588 -0.831869 12.752744 4.662204 -3.518187 -11.963606 1.909923 -0.840888 0.000000 0.000000 0.000000 6.336267 -36.834783 3.268642 -113.717158 -48.739123 7.436556 114.138000 -4.515543 -27.198148 44.935422 8.256830 26.318218 7.855430 3.040506 -4.910023 0.000000 0.000000 0.000000 3.899497 -42.575028 1.113176 31.607800 -8.254004 -7.415777 12.195900 0.724241 -3.413353 0.129053 1.781342 1.091008 0.000000 0.000000 0.000000 12.303680 0.622017 -2.508135 -7.093350 18.834397 -15.290644 -27.979933 11.454204 3.560386 0.000000 0.000000 0.000000 13.510767 1.213772 -2.839610 12.232022 -19.536892 0.428204 2.485629 -4.723781 -4.601434 -53.980764 -5.475979 -4.254865 47.448494 -17.405554 29.032972 0.000000 0.000000 0.000000 14.685832 1.062056 -3.179774 16.999496 25.779497 -4.036537 0.244811 4.199450 4.288855 -30.171459 0.718065 7.878446 -44.016085 46.012447 32.365162 0.000000 0.000000 0.000000 
-1.444000 152.444763 22.006477 0.000000 0.000000 0.000000 7.004460 -40.674685 4.355913 -84.056222 -18.916573 19.897436 79.772204 -2.749053 -0.895181 12.469175 5.030156 -3.587557 -12.013055 1.875380 -0.804168 0.000000 0.000000 0.000000 6.455759 -36.820156 3.539413 -113.765338 -48.571005 6.916569 114.048976 -4.350921 -27.076769 44.680202 8.406552 26.139489 7.708780 3.046458 -4.925477 0.000000 0.000000 0.000000 3.850270 -42.576667 1.290375 31.468563 -8.280941 -7.440334 12.144448 0.732088 -3.421913 0.152590 1.809335 1.060220 0.000000 0.000000 0.000000 12.233220 0.645064 -2.539791 -7.045893 18.759231 -15.282169 -27.583193 11.381306 3.675853 0.000000 0.000000 0.000000 13.446082 1.230778 -2.847858 12.022362 -19.274481 -0.278134 2.142535 -4.605579 -4.605576 -53.146621 -3.585519 -3.770207 47.741550 -18.014527 29.350112 0.000000 0.000000 0.000000 14.607130 1.075593 -3.173818 16.716502 25.852015 -3.392584 0.154137 4.125445 4.416081 -29.780998 0.533965 7.715367 -43.718910 45.358122 31.890819 0.000000 0.000000 0.000000 
